<svg xmlns="http://www.w3.org/2000/svg" viewBox="0 0 1050 740" font-family="DejaVu Sans, Helvetica, Arial, sans-serif" font-size="12">
<defs><marker id="arr" viewBox="0 0 10 10" refX="9" refY="5" markerWidth="7" markerHeight="7" orient="auto-start-reverse"><path d="M0,0 L10,5 L0,10 z" fill="#52514e"/></marker>
<pattern id="rock" width="14" height="14" patternUnits="userSpaceOnUse" patternTransform="rotate(45)"><line x1="0" y1="0" x2="0" y2="14" stroke="#dcdad3" stroke-width="1"/></pattern>
<linearGradient id="steam" x1="0" y1="0" x2="0" y2="1"><stop offset="0" stop-color="#fbd9c6"/><stop offset="1" stop-color="#eb6834"/></linearGradient></defs>
<rect width="1050" height="740" fill="#fcfcfb"/>
<text x="20" y="28" font-size="16" font-weight="bold" fill="#0b0b0b">ROCKSINK: bedrock as the passive ultimate heat sink (vertical section, 5.5 px per metre)</text>
<text x="20" y="46" fill="#52514e">One 250 MWth integral PWR module. 128 sealed water thermosyphons fan from a ring drift into 7.3 km of grouted uphole.</text>
<text x="20" y="61" fill="#52514e">No pool, no tower, no valves, no pumps, no power, and nothing above grade to hit.</text>
<rect x="20" y="120" width="1000" height="550.0" fill="url(#rock)" stroke="#c3c2b7"/>
<line x1="20" y1="120" x2="1020" y2="120" stroke="#0b0b0b" stroke-width="2"/>
<text x="26" y="114" fill="#52514e" font-size="11">ground surface 0 m</text>
<rect x="424.0" y="76" width="132.0" height="44" fill="#f0efec" stroke="#52514e"/>
<text x="490" y="102" text-anchor="middle" fill="#0b0b0b" font-size="11">reactor building</text>
<line x1="994" y1="120.0" x2="1006" y2="120.0" stroke="#52514e"/><text x="1010" y="124.0" text-anchor="start" fill="#52514e" font-size="11">0 m</text>
<line x1="994" y1="257.5" x2="1006" y2="257.5" stroke="#52514e"/><text x="1010" y="261.5" text-anchor="start" fill="#52514e" font-size="11">-25 m</text>
<line x1="994" y1="395.0" x2="1006" y2="395.0" stroke="#52514e"/><text x="1010" y="399.0" text-anchor="start" fill="#52514e" font-size="11">-50 m</text>
<line x1="994" y1="521.5" x2="1006" y2="521.5" stroke="#52514e"/><text x="1010" y="525.5" text-anchor="start" fill="#52514e" font-size="11">-73 m</text>
<line x1="994" y1="670.0" x2="1006" y2="670.0" stroke="#52514e"/><text x="1010" y="674.0" text-anchor="start" fill="#52514e" font-size="11">-100 m</text>
<line x1="1000" y1="120" x2="1000" y2="670.0" stroke="#52514e"/>
<rect x="462.5" y="120" width="55.0" height="550.0" fill="#f7f6f2" stroke="#52514e" stroke-width="1.5"/>
<text x="490" y="142" text-anchor="middle" fill="#52514e" font-size="11">shaft 10 m ID</text><text x="490" y="156" text-anchor="middle" fill="#52514e" font-size="11">100 m deep</text>
<rect x="475.7" y="521.5" width="28.6" height="137.5" rx="6" fill="#cde2fb" stroke="#1c5cab" stroke-width="2"/>
<rect x="475.7" y="521.5" width="28.6" height="11.0" rx="6" fill="url(#steam)"/>
<rect x="477.35" y="532.5" width="25.299999999999997" height="126.5" rx="7" fill="#e8e6e0" stroke="#0b0b0b" stroke-width="1.5"/>
<rect x="481.75" y="543.5" width="16.5" height="110.0" rx="5" fill="#c3c2b7" stroke="#0b0b0b"/>
<rect x="485.05" y="609.5" width="9.9" height="33.0" fill="#eb6834"/>
<rect x="399.25" y="521.5" width="16.5" height="16.5" rx="4" fill="#f0efec" stroke="#52514e"/>
<circle cx="407.5" cy="529.75" r="3.3" fill="url(#steam)" stroke="#b2431a" stroke-width="1.5"/>
<line x1="475.7" y1="527.0" x2="410.8" y2="527.0" stroke="#b2431a" stroke-width="3"/>
<line x1="475.7" y1="531.95" x2="410.8" y2="530.3" stroke="#1c5cab" stroke-width="1.5"/>
<line x1="407.5" y1="521.5" x2="407.5" y2="477.5" stroke="#8a8984" stroke-width="6" opacity="0.7"/>
<line x1="407.5" y1="477.5" x2="407.5" y2="164.0" stroke="#1c5cab" stroke-width="2.5" stroke-linecap="round"/>
<line x1="407.5" y1="164.0" x2="407.5" y2="147.5" stroke="#1c5cab" stroke-width="6" stroke-linecap="round"/>
<line x1="407.5" y1="521.5" x2="399.9" y2="478.2" stroke="#8a8984" stroke-width="6" opacity="0.7"/>
<line x1="399.9" y1="478.2" x2="345.4" y2="169.4" stroke="#1c5cab" stroke-width="2.5" stroke-linecap="round"/>
<line x1="345.4" y1="169.4" x2="342.6" y2="153.2" stroke="#1c5cab" stroke-width="6" stroke-linecap="round"/>
<line x1="407.5" y1="521.5" x2="392.5" y2="480.2" stroke="#8a8984" stroke-width="6" opacity="0.7"/>
<line x1="392.5" y1="480.2" x2="285.2" y2="185.6" stroke="#1c5cab" stroke-width="2.5" stroke-linecap="round"/>
<line x1="285.2" y1="185.6" x2="279.6" y2="170.1" stroke="#1c5cab" stroke-width="6" stroke-linecap="round"/>
<line x1="407.5" y1="521.5" x2="385.5" y2="483.4" stroke="#8a8984" stroke-width="6" opacity="0.7"/>
<line x1="385.5" y1="483.4" x2="228.8" y2="211.9" stroke="#1c5cab" stroke-width="2.5" stroke-linecap="round"/>
<line x1="228.8" y1="211.9" x2="220.5" y2="197.6" stroke="#1c5cab" stroke-width="6" stroke-linecap="round"/>
<line x1="401.5" y1="285.0" x2="377.5" y2="285.0" stroke="#eb6834" stroke-width="1.5" marker-end="url(#arr)"/>
<line x1="413.5" y1="285.0" x2="437.5" y2="285.0" stroke="#eb6834" stroke-width="1.5" marker-end="url(#arr)"/>
<line x1="401.5" y1="395.0" x2="377.5" y2="395.0" stroke="#eb6834" stroke-width="1.5" marker-end="url(#arr)"/>
<line x1="413.5" y1="395.0" x2="437.5" y2="395.0" stroke="#eb6834" stroke-width="1.5" marker-end="url(#arr)"/>
<rect x="564.25" y="521.5" width="16.5" height="16.5" rx="4" fill="#f0efec" stroke="#52514e"/>
<circle cx="572.5" cy="529.75" r="3.3" fill="url(#steam)" stroke="#b2431a" stroke-width="1.5"/>
<line x1="504.3" y1="527.0" x2="569.2" y2="527.0" stroke="#b2431a" stroke-width="3"/>
<line x1="504.3" y1="531.95" x2="569.2" y2="530.3" stroke="#1c5cab" stroke-width="1.5"/>
<line x1="572.5" y1="521.5" x2="572.5" y2="477.5" stroke="#8a8984" stroke-width="6" opacity="0.7"/>
<line x1="572.5" y1="477.5" x2="572.5" y2="164.0" stroke="#1c5cab" stroke-width="2.5" stroke-linecap="round"/>
<line x1="572.5" y1="164.0" x2="572.5" y2="147.5" stroke="#1c5cab" stroke-width="6" stroke-linecap="round"/>
<line x1="572.5" y1="521.5" x2="580.1" y2="478.2" stroke="#8a8984" stroke-width="6" opacity="0.7"/>
<line x1="580.1" y1="478.2" x2="634.6" y2="169.4" stroke="#1c5cab" stroke-width="2.5" stroke-linecap="round"/>
<line x1="634.6" y1="169.4" x2="637.4" y2="153.2" stroke="#1c5cab" stroke-width="6" stroke-linecap="round"/>
<line x1="572.5" y1="521.5" x2="587.5" y2="480.2" stroke="#8a8984" stroke-width="6" opacity="0.7"/>
<line x1="587.5" y1="480.2" x2="694.8" y2="185.6" stroke="#1c5cab" stroke-width="2.5" stroke-linecap="round"/>
<line x1="694.8" y1="185.6" x2="700.4" y2="170.1" stroke="#1c5cab" stroke-width="6" stroke-linecap="round"/>
<line x1="572.5" y1="521.5" x2="594.5" y2="483.4" stroke="#8a8984" stroke-width="6" opacity="0.7"/>
<line x1="594.5" y1="483.4" x2="751.2" y2="211.9" stroke="#1c5cab" stroke-width="2.5" stroke-linecap="round"/>
<line x1="751.2" y1="211.9" x2="759.5" y2="197.6" stroke="#1c5cab" stroke-width="6" stroke-linecap="round"/>
<line x1="578.5" y1="285.0" x2="602.5" y2="285.0" stroke="#eb6834" stroke-width="1.5" marker-end="url(#arr)"/>
<line x1="566.5" y1="285.0" x2="542.5" y2="285.0" stroke="#eb6834" stroke-width="1.5" marker-end="url(#arr)"/>
<line x1="578.5" y1="395.0" x2="602.5" y2="395.0" stroke="#eb6834" stroke-width="1.5" marker-end="url(#arr)"/>
<line x1="566.5" y1="395.0" x2="542.5" y2="395.0" stroke="#eb6834" stroke-width="1.5" marker-end="url(#arr)"/>
<text x="30" y="150" font-weight="bold" fill="#0b0b0b" font-size="11.5">Gas reservoir (top 3 m)</text>
<text x="30" y="164" fill="#52514e" font-size="11">Nitrogen charge blankets the</text>
<text x="30" y="178" fill="#52514e" font-size="11">condenser below 45 °C vapour,</text>
<text x="30" y="192" fill="#52514e" font-size="11">so the leak to rock in normal</text>
<text x="30" y="206" fill="#52514e" font-size="11">operation is about zero. Fully</text>
<text x="30" y="220" fill="#52514e" font-size="11">open by 95 °C.</text>
<text x="30" y="245" font-weight="bold" fill="#0b0b0b" font-size="11.5">Condenser legs (57 m each)</text>
<text x="30" y="259" fill="#52514e" font-size="11">125 mm ID stainless tube grouted</text>
<text x="30" y="273" fill="#52514e" font-size="11">in a 165 mm uphole. Tilted 0, 10,</text>
<text x="30" y="287" fill="#52514e" font-size="11">20 and 30° outward, alternating</text>
<text x="30" y="301" fill="#52514e" font-size="11">around the ring, so the rock</text>
<text x="30" y="315" fill="#52514e" font-size="11">loaded per hole grows with height.</text>
<text x="30" y="345" font-weight="bold" fill="#0b0b0b" font-size="11.5">Insulated riser (8 m)</text>
<text x="30" y="359" fill="#52514e" font-size="11">keeps the crowded collar zone</text>
<text x="30" y="373" fill="#52514e" font-size="11">from overheating.</text>
<text x="30" y="400" font-weight="bold" fill="#0b0b0b" font-size="11.5">Ring drift, r = 15 m</text>
<text x="30" y="414" fill="#52514e" font-size="11">3 × 3 m tunnel holding the steam</text>
<text x="30" y="428" fill="#52514e" font-size="11">torus. The 4 m evaporator of each</text>
<text x="30" y="442" fill="#52514e" font-size="11">thermosyphon sits in the torus;</text>
<text x="30" y="456" fill="#52514e" font-size="11">jacket steam condenses on it and</text>
<text x="30" y="470" fill="#52514e" font-size="11">drains back down a sloped line.</text>
<text x="742" y="150" font-weight="bold" fill="#0b0b0b" font-size="11.5">Rock does the rest</text>
<text x="742" y="164" fill="#52514e" font-size="11">Hottest borehole wall 70 °C at</text>
<text x="742" y="178" fill="#52514e" font-size="11">3.7 h after scram, then about</text>
<text x="742" y="192" fill="#52514e" font-size="11">50 to 56 °C from week 1 to year 3.</text>
<text x="742" y="245" font-weight="bold" fill="#0b0b0b" font-size="11.5">Containment jacket</text>
<text x="742" y="259" fill="#52514e" font-size="11">0.3 m water annulus and steam</text>
<text x="742" y="273" fill="#52514e" font-size="11">drum around the steel containment.</text>
<text x="742" y="287" fill="#52514e" font-size="11">120 t water, closed, rated 0.5 MPa.</text>
<text x="742" y="301" fill="#52514e" font-size="11">Held at 25 °C by a small chiller in</text>
<text x="742" y="315" fill="#52514e" font-size="11">normal operation. After a scram with</text>
<text x="742" y="329" fill="#52514e" font-size="11">nothing working it peaks at 95 °C</text>
<text x="742" y="343" fill="#52514e" font-size="11">and 0.08 MPa gauge.</text>
<text x="742" y="370" font-weight="bold" fill="#0b0b0b" font-size="11.5">Result</text>
<text x="742" y="384" fill="#52514e" font-size="11">Unlimited grace period with no</text>
<text x="742" y="398" fill="#52514e" font-size="11">operator action, no water and no</text>
<text x="742" y="412" fill="#52514e" font-size="11">power, in granite, limestone and</text>
<text x="742" y="426" fill="#52514e" font-size="11">shale.</text>
<text x="20" y="700" fill="#52514e" font-size="11">Heat path: core, reactor vessel, steam in containment, containment wall, boiling jacket, torus, thermosyphon evaporators, vapour up the upholes,</text>
<text x="20" y="715" fill="#52514e" font-size="11">condensate film, tube wall, grout, bedrock, and over months the ground surface. Every step is driven by gravity, pressure difference or conduction.</text>
</svg>